<?xml version="1.0" encoding="UTF-8" standalone="no"?>
<svg
   viewBox="0 0 276.19806 44.285999"
   fill="none"
   version="1.1"
   id="svg1"
   sodipodi:docname="logo-wordmark-stack.svg"
   width="276.19806"
   height="44.285999"
   inkscape:version="1.4.2 (ebf0e940d0, 2025-05-08)"
   xmlns:inkscape="http://www.inkscape.org/namespaces/inkscape"
   xmlns:sodipodi="http://sodipodi.sourceforge.net/DTD/sodipodi-0.dtd"
   xmlns="http://www.w3.org/2000/svg"
   xmlns:svg="http://www.w3.org/2000/svg">
  <defs
     id="defs1" />
  <sodipodi:namedview
     id="namedview1"
     pagecolor="#ffffff"
     bordercolor="#000000"
     borderopacity="0.25"
     inkscape:showpageshadow="2"
     inkscape:pageopacity="0.0"
     inkscape:pagecheckerboard="0"
     inkscape:deskcolor="#d1d1d1"
     inkscape:zoom="1.9177083"
     inkscape:cx="128.53884"
     inkscape:cy="38.066268"
     inkscape:window-width="1920"
     inkscape:window-height="976"
     inkscape:window-x="0"
     inkscape:window-y="0"
     inkscape:window-maximized="1"
     inkscape:current-layer="text1" />
  <g
     id="text1"
     style="font-weight:900;font-size:22px;font-family:Merriweather, Georgia, serif;letter-spacing:3;fill:#0d7377"
     aria-label="NORTH AMERICAN&#10;UPHOLSTERY GUILD"
     transform="translate(-0.352,-21.456)">
    <path
       d="M 2.6389264,23.660375 0.77,23.348887 v -1.677242 h 6.0141094 l 6.6131246,10.207214 1.341793,2.875271 V 23.660375 l -2.03665,-0.311488 v -1.677242 h 6.133912 v 1.677242 l -1.821005,0.311488 V 39.474368 H 13.493076 L 6.4726217,28.524376 4.8912224,25.361577 v 12.267825 l 2.5398231,0.263566 v 1.5814 H 0.77 v -1.5814 L 2.6389264,37.629402 Z M 31.040953,39.737934 q -4.02538,0 -5.966189,-2.42002 -1.940808,-2.443981 -1.940808,-6.708967 0,-2.755468 1.006345,-4.816079 1.030306,-2.084572 2.875272,-3.21072 Q 28.860538,21.456 31.32848,21.456 q 4.121222,0 6.06203,2.300217 1.964769,2.276257 1.964769,6.517282 0,2.80339 -1.030305,4.959843 -1.030306,2.132493 -2.923193,3.330523 -1.868927,1.174069 -4.360828,1.174069 z m 0.215645,-16.700535 q -1.725163,0 -2.683587,1.892887 -0.934463,1.892887 -0.934463,5.654701 0,3.833695 0.934463,5.702622 0.934463,1.844965 2.659626,1.844965 1.701203,0 2.635666,-2.01269 0.958424,-2.03665 0.958424,-5.822424 0,-3.833696 -0.910503,-5.534898 -0.910503,-1.725163 -2.659626,-1.725163 z m 12.827653,14.855569 1.844966,-0.239606 V 23.660375 l -1.749123,-0.335449 v -1.653281 h 3.689931 q 0.455252,0 0.982385,-0.02396 0.551093,-0.02396 0.838621,-0.04792 1.293872,-0.09584 2.204374,-0.09584 2.563784,0 4.073302,0.503173 1.509517,0.479212 2.180414,1.533478 0.694857,1.030305 0.694857,2.731508 0,1.62932 -0.862581,3.042995 -0.862582,1.413675 -2.539824,1.940809 1.102188,0.40733 1.844966,1.533478 0.766739,1.102187 1.5814,2.82735 0.479211,1.006345 0.766739,1.509517 0.287527,0.479212 0.599014,0.551094 l 0.694858,0.215645 v 1.5814 h -4.552513 q -0.359409,0 -0.742779,-0.766739 -0.383369,-0.766739 -0.982384,-2.39606 -0.742779,-1.988729 -1.293872,-3.066956 -0.527133,-1.102187 -1.17407,-1.341793 h -2.156453 v 5.750542 l 2.132493,0.239606 v 1.5814 h -8.074721 z m 7.787194,-7.547587 q 1.245951,0 1.940808,-0.958424 0.694857,-0.982384 0.694857,-2.947153 0,-1.725163 -0.694857,-2.515863 -0.670897,-0.81466 -2.276257,-0.81466 -0.862581,0 -1.509517,0.119803 v 7.044415 q 0.311488,0.07188 1.030305,0.07188 0.718818,0 0.814661,0 z m 18.817801,-6.900652 -2.995075,0.119803 -1.006345,5.343213 H 64.43553 l 0.38337,-7.2361 h 15.790032 l 0.311488,7.2361 h -2.132493 l -1.054266,-5.343213 -2.899232,-0.119803 v 14.184673 l 3.330522,0.263566 v 1.5814 H 67.64625 v -1.5814 l 3.042996,-0.263566 z m 16.685293,0.215646 -1.725163,-0.311488 v -1.677242 h 7.763233 v 1.677242 l -1.964769,0.311488 v 5.726582 h 6.565203 v -5.702622 l -1.797045,-0.335448 v -1.677242 h 7.667392 v 1.677242 l -1.77309,0.311488 v 13.992987 l 1.77309,0.239606 v 1.5814 h -7.667392 v -1.5814 l 1.797045,-0.263566 V 31.423608 H 91.44784 v 6.229754 l 1.964769,0.239606 v 1.5814 h -7.811155 v -1.5814 l 1.773085,-0.239606 z m 35.910411,-2.060611 h 4.3129 l 5.36718,16.053598 1.31783,0.239606 v 1.5814 h -7.54759 v -1.5814 l 1.7012,-0.239606 -0.81466,-2.875271 h -5.72658 l -0.81466,2.899232 1.86893,0.215645 v 1.5814 h -6.37352 l -0.024,-1.5814 1.38971,-0.263566 z m 1.77308,4.169143 -0.35941,-1.677242 -0.38337,1.701203 -1.94081,7.140257 h 4.7442 z m 15.91857,-2.084572 -2.53982,-0.335448 v -1.677242 h 8.1466 l 2.53982,10.015529 0.57506,2.659626 0.47921,-2.659626 2.51586,-10.015529 h 8.09868 v 1.677242 l -2.6117,0.335448 1.91685,13.945067 1.84496,0.263566 v 1.5814 h -8.07472 v -1.5814 l 2.03665,-0.263566 -1.00634,-10.327017 -0.43129,-4.217065 -0.83863,3.833696 -3.13883,11.860494 h -3.13884 l -3.35448,-11.525046 -1.10219,-4.193104 -0.28753,4.241025 -0.88654,10.327017 2.44398,0.263566 v 1.5814 h -6.92461 v -1.5814 l 1.98873,-0.239606 z m 26.94042,0 -1.86892,-0.335448 v -1.677242 h 13.10644 l 0.31149,4.241026 h -1.89289 l -0.83862,-2.42002 -4.72024,-0.239606 v 6.229754 l 2.9232,-0.07188 0.43129,-1.964769 h 1.65328 v 6.014109 h -1.65328 l -0.40733,-2.084572 -2.94716,-0.07188 v 6.517282 l 5.24737,-0.335449 1.4616,-3.090916 2.03665,0.575054 -0.57505,4.504592 h -14.11279 v -1.5814 l 1.84496,-0.239606 z m 17.1645,14.208633 1.84497,-0.239606 V 23.660375 l -1.74913,-0.335449 v -1.653281 h 3.68994 q 0.45525,0 0.98238,-0.02396 0.55109,-0.02396 0.83862,-0.04792 1.29387,-0.09584 2.20438,-0.09584 2.56378,0 4.0733,0.503173 1.50951,0.479212 2.18041,1.533478 0.69486,1.030305 0.69486,2.731508 0,1.62932 -0.86258,3.042995 -0.86258,1.413675 -2.53983,1.940809 1.10219,0.40733 1.84497,1.533478 0.76674,1.102187 1.5814,2.82735 0.47921,1.006345 0.76674,1.509517 0.28753,0.479212 0.59901,0.551094 l 0.69486,0.215645 v 1.5814 h -4.55251 q -0.35941,0 -0.74278,-0.766739 -0.38337,-0.766739 -0.98239,-2.39606 -0.74277,-1.988729 -1.29387,-3.066956 -0.52713,-1.102187 -1.17407,-1.341793 h -2.15645 v 5.750542 l 2.13249,0.239606 v 1.5814 h -8.07472 z m 7.7872,-7.547587 q 1.24595,0 1.9408,-0.958424 0.69486,-0.982384 0.69486,-2.947153 0,-1.725163 -0.69486,-2.515863 -0.67089,-0.81466 -2.27625,-0.81466 -0.86258,0 -1.50952,0.119803 v 7.044415 q 0.31149,0.07188 1.0303,0.07188 0.71882,0 0.81467,0 z m 15.10389,-6.661046 -1.96476,-0.335448 v -1.677242 h 8.07472 v 1.677242 l -2.01269,0.335448 v 13.969027 l 2.01269,0.263567 v 1.557439 h -8.05076 v -1.5814 l 1.9408,-0.263566 z m 19.4168,16.053599 q -4.14518,0 -6.30164,-2.396059 -2.15645,-2.42002 -2.15645,-6.613125 0,-2.82735 1.15011,-4.911922 1.15011,-2.108532 3.1628,-3.210719 2.01269,-1.126148 4.55251,-1.126148 1.00634,0 1.94081,0.119803 0.93446,0.09584 2.25229,0.287527 1.03031,0.167724 1.41368,0.191684 l -0.28753,5.343213 h -2.56378 l -0.81466,-3.665971 q -0.52714,-0.575054 -2.20438,-0.575054 -1.84496,0 -2.92319,1.844966 -1.05427,1.821005 -1.05427,5.367173 0,3.450326 1.03031,5.534898 1.05427,2.084571 3.043,2.084571 0.98238,0 1.48555,-0.191684 0.52714,-0.191685 0.88654,-0.551094 l 1.07823,-2.563784 2.34814,0.215646 -0.43129,3.905577 q -0.69486,0.04792 -1.7012,0.359409 -0.95843,0.263566 -1.82101,0.40733 -0.83862,0.143763 -2.08457,0.143763 z m 16.3259,-18.13817 h 4.31291 l 5.36717,16.053598 1.31783,0.239606 v 1.5814 h -7.54758 v -1.5814 l 1.7012,-0.239606 -0.81466,-2.875271 h -5.72658 l -0.81467,2.899232 1.86893,0.215645 v 1.5814 h -6.37352 l -0.024,-1.5814 1.38972,-0.263566 z m 1.77308,4.169143 -0.35941,-1.677242 -0.38336,1.701203 -1.94081,7.140257 h 4.74419 z m 14.86431,-2.108532 -1.86893,-0.311488 v -1.677242 h 6.01411 l 6.61312,10.207214 1.3418,2.875271 V 23.660375 l -2.03665,-0.311488 v -1.677242 h 6.13391 v 1.677242 l -1.82101,0.311488 v 15.813993 h -3.5222 l -7.02046,-10.949992 -1.5814,-3.162799 v 12.267825 l 2.53983,0.263566 v 1.5814 h -6.66105 v -1.5814 l 1.86893,-0.263566 z"
       id="path2"
       style="stroke-width:1.08912" />
    <path
       d="m 8.514,65.676 q -3.41,0 -5.104,-1.65 -1.694,-1.65 -1.694,-5.17 V 51.002 L 0.352,50.694 v -1.54 h 7.106 v 1.54 l -1.848,0.33 v 8.14 q 0,4.972 3.454,4.972 1.716,0 2.508,-1.298 0.814,-1.32 0.814,-3.63 v -8.206 l -1.892,-0.308 v -1.54 h 5.72 v 1.54 l -1.452,0.308 v 8.008 q 0,3.432 -1.694,5.06 -1.672,1.606 -4.554,1.606 z m 13.340018,-14.674 -1.628,-0.308 v -1.54 h 3.586 q 0.352,0 1.364,-0.044 1.276,-0.088 2.31,-0.088 2.376,0 3.74,0.572 1.364,0.572 1.936,1.65 0.572,1.056 0.572,2.684 0,2.816 -1.716,4.378 -1.716,1.562 -4.884,1.562 -0.99,0 -1.518,-0.066 v 4.004 l 2.904,0.242 V 65.5 h -8.36 v -1.452 l 1.694,-0.22 z m 3.74,7.282 q 0.44,0.11 1.452,0.11 2.86,0 2.86,-4.378 0,-1.826 -0.726,-2.662 -0.704,-0.858 -2.134,-0.858 -0.616,0 -0.968,0.066 -0.352,0.044 -0.484,0.066 z m 13.955984,-7.304 -1.584,-0.286 v -1.54 h 7.128 v 1.54 l -1.804,0.286 v 5.258 h 6.028 v -5.236 l -1.65,-0.308 v -1.54 h 7.04 v 1.54 l -1.628,0.286 v 12.848 l 1.628,0.22 V 65.5 h -7.04 v -1.452 l 1.65,-0.242 v -5.698 h -6.028 v 5.72 l 1.804,0.22 V 65.5 h -7.172 v -1.452 l 1.628,-0.22 z m 26.848016,14.762 q -3.696,0 -5.478,-2.222 -1.782,-2.244 -1.782,-6.16 0,-2.53 0.924,-4.422 0.946,-1.914 2.64,-2.948 1.694,-1.034 3.96,-1.034 3.784,0 5.566,2.112 1.804,2.09 1.804,5.984 0,2.574 -0.946,4.554 -0.946,1.958 -2.684,3.058 -1.716,1.078 -4.004,1.078 z m 0.198,-15.334 q -1.584,0 -2.464,1.738 -0.858,1.738 -0.858,5.192 0,3.52 0.858,5.236 0.858,1.694 2.442,1.694 1.562,0 2.42,-1.848 0.88,-1.87 0.88,-5.346 0,-3.52 -0.836,-5.082 -0.836,-1.584 -2.442,-1.584 z m 13.49402,0.594 -1.65,-0.308 v -1.54 h 7.502 v 1.54 l -2.09,0.308 v 12.782 l 4.136,-0.22 1.43,-4.356 2.068,0.264 -0.638,6.028 h -12.452 v -1.452 l 1.694,-0.22 z m 21.260022,14.74 q -1.21,0 -2.244002,-0.198 -1.012,-0.198 -2.134,-0.528 -0.726,-0.22 -1.056,-0.242 l 0.198,-4.114 h 2.046 l 0.55,2.816 q 0.242,0.286 0.88,0.506 0.660002,0.22 1.562002,0.22 1.342,0 2.002,-0.594 0.682,-0.594 0.682,-1.628 0,-0.726 -0.44,-1.254 -0.418,-0.55 -1.188,-0.99 -0.748,-0.462 -2.068,-1.056 -1.738002,-0.792 -2.948002,-2.002 -1.188,-1.232 -1.188,-3.234 0,-1.232 0.638,-2.244 0.638,-1.012 1.936,-1.628 1.298,-0.616 3.234002,-0.616 1.166,0 2.024,0.154 0.88,0.154 1.87,0.418 0.528,0.176 0.814,0.198 l -0.132,3.916 h -2.002 l -0.506,-2.706 q -0.154,-0.198 -0.704,-0.352 -0.528,-0.176 -1.188,-0.176 -1.21,0 -1.826,0.572 -0.594002,0.572 -0.594002,1.474 0,0.792 0.506002,1.386 0.506,0.594 1.21,1.012 0.726,0.396 2.2,1.122 1.166,0.572 2.024,1.166 0.88,0.572 1.496,1.496 0.616,0.924 0.616,2.156 0,1.21 -0.594,2.332 -0.572,1.122 -1.98,1.87 -1.408,0.748 -3.696,0.748 z m 15.86998,-14.96 -2.75,0.11 -0.924,4.906 h -2.068 l 0.352,-6.644 h 14.498 l 0.286,6.644 h -1.958 l -0.968,-4.906 -2.662,-0.11 v 13.024 l 3.058,0.242 V 65.5 h -9.658 v -1.452 l 2.794,-0.242 z m 15.29801,0.22 -1.716,-0.308 v -1.54 h 12.034 l 0.286,3.894 h -1.738 l -0.77,-2.222 -4.334,-0.22 v 5.72 l 2.684,-0.066 0.396,-1.804 h 1.518 v 5.522 h -1.518 l -0.374,-1.914 -2.706,-0.066 v 5.984 l 4.818,-0.308 1.342,-2.838 1.87,0.528 -0.528,4.136 h -12.958 v -1.452 l 1.694,-0.22 z m 15.75998,13.046 1.694,-0.22 V 50.98 l -1.606,-0.308 v -1.518 h 3.388 q 0.418,0 0.902,-0.022 0.506,-0.022 0.77,-0.044 1.188,-0.088 2.024,-0.088 2.354,0 3.74,0.462 1.386,0.44 2.002,1.408 0.638,0.946 0.638,2.508 0,1.496 -0.792,2.794 -0.792,1.298 -2.332,1.782 1.012,0.374 1.694,1.408 0.704,1.012 1.452,2.596 0.44,0.924 0.704,1.386 0.264,0.44 0.55,0.506 l 0.638,0.198 V 65.5 h -4.18 q -0.33,0 -0.682,-0.704 -0.352,-0.704 -0.902,-2.2 -0.682,-1.826 -1.188,-2.816 -0.484,-1.012 -1.078,-1.232 h -1.98 v 5.28 l 1.958,0.22 V 65.5 h -7.414 z m 7.15,-6.93 q 1.144,0 1.782,-0.88 0.638,-0.902 0.638,-2.706 0,-1.584 -0.638,-2.31 -0.616,-0.748 -2.09,-0.748 -0.792,0 -1.386,0.11 v 6.468 q 0.286,0.066 0.946,0.066 0.66,0 0.748,0 z m 16.53003,1.826 -4.554,-7.964 -1.21,-0.286 v -1.54 h 6.93 v 1.54 l -1.43,0.308 2.508,5.038 0.55,1.43 0.572,-1.43 2.266,-5.038 -1.672,-0.308 v -1.54 h 5.61 v 1.54 l -1.342,0.242 -4.224,7.986 v 4.884 l 2.332,0.242 V 65.5 h -8.602 v -1.452 l 2.266,-0.242 z m 28.748,6.798 q -2.464,0 -4.224,-1.078 -1.76,-1.078 -2.662,-2.948 -0.902,-1.87 -0.902,-4.246 0,-2.728 1.034,-4.642 1.034,-1.914 2.948,-2.882 1.936,-0.99 4.576,-0.99 1.518,0 3.014,0.22 1.496,0.22 2.53,0.462 l -0.264,4.246 h -2.64 l -0.616,-2.904 q -0.198,-0.22 -0.726,-0.374 -0.506,-0.176 -1.386,-0.176 -1.958,0 -3.036,1.738 -1.078,1.716 -1.078,4.994 0,3.256 0.902,5.17 0.924,1.892 2.86,1.892 0.792,0 1.43,-0.198 0.66,-0.22 0.99,-0.55 v -4.598 l -2.046,-0.22 v -1.606 h 6.864 v 1.606 l -1.1,0.176 v 5.786 q -0.374,0.022 -1.738,0.352 -1.342,0.352 -2.42,0.55 -1.078,0.22 -2.31,0.22 z m 19.49999,-0.066 q -3.41,0 -5.104,-1.65 -1.694,-1.65 -1.694,-5.17 v -7.854 l -1.364,-0.308 v -1.54 h 7.106 v 1.54 l -1.848,0.33 v 8.14 q 0,4.972 3.454,4.972 1.716,0 2.508,-1.298 0.814,-1.32 0.814,-3.63 v -8.206 l -1.892,-0.308 v -1.54 h 5.72 v 1.54 l -1.452,0.308 v 8.008 q 0,3.432 -1.694,5.06 -1.672,1.606 -4.554,1.606 z m 13.56001,-14.674 -1.804,-0.308 v -1.54 h 7.414 v 1.54 l -1.848,0.308 v 12.826 l 1.848,0.242 v 1.43 h -7.392 v -1.452 l 1.782,-0.242 z m 11.954,0 -1.65,-0.308 v -1.54 h 7.502 v 1.54 l -2.09,0.308 v 12.782 l 4.136,-0.22 1.43,-4.356 2.068,0.264 -0.638,6.028 h -12.452 v -1.452 l 1.694,-0.22 z m 17.08,0 -1.606,-0.308 v -1.54 h 3.432 q 0.726,0 1.958,-0.088 0.286,-0.022 0.858,-0.044 0.594,-0.022 1.056,-0.022 4.004,0 6.028,2.002 2.024,2.002 2.024,5.742 0,2.574 -0.99,4.598 -0.99,2.024 -2.838,3.19 -1.848,1.144 -4.356,1.144 -0.682,0 -2.046,-0.088 -1.276,-0.088 -1.65,-0.088 h -3.564 v -1.452 l 1.694,-0.242 z m 3.718,12.87 q 0.77,0.242 1.76,0.198 1.98,-0.022 3.058,-1.672 1.1,-1.672 1.1,-5.104 0,-3.168 -1.078,-4.95 -1.056,-1.804 -3.344,-1.804 -0.528,0 -0.946,0.066 -0.418,0.066 -0.55,0.088 z"
       id="path3" />
  </g>
</svg>
