<?xml version="1.0" encoding="UTF-8" standalone="no"?>
<svg
   viewBox="0 0 80 80"
   fill="none"
   version="1.1"
   id="svg2"
   xmlns="http://www.w3.org/2000/svg"
   xmlns:svg="http://www.w3.org/2000/svg">
  <defs
     id="defs2" />
  <!-- Outer circle -->
  <circle
     cx="40"
     cy="40"
     r="38"
     fill="#0d7377"
     stroke="#095456"
     stroke-width="2"
     id="circle1"
     style="stroke:none" />
  <path
     id="path3"
     style="fill:#0d7377;stroke-width:0.963349"
     d="M 40 0 A 8.375576 40 0 0 0 35.541016 6.1386719 A 40 8.375576 75 0 0 29.646484 1.3613281 A 40 8.375576 75 0 0 26.929688 8.4453125 A 40 8.375576 60 0 0 20 5.3574219 A 40 8.375576 60 0 0 19.208984 12.904297 A 40 8.375576 45 0 0 11.714844 11.714844 A 40 8.375576 45 0 0 12.904297 19.208984 A 40 8.375576 30 0 0 5.359375 20 A 40 8.375576 30 0 0 8.4453125 26.929688 A 40 8.375576 15 0 0 1.3632812 29.646484 A 40 8.375576 15 0 0 6.1386719 35.541016 A 40 8.375576 0 0 0 0 40 A 40 8.375576 0 0 0 6.1386719 44.458984 A 8.375576 40 75 0 0 1.3613281 50.353516 A 8.375576 40 75 0 0 8.4453125 53.070312 A 8.375576 40 60 0 0 5.3574219 60 A 8.375576 40 60 0 0 12.904297 60.791016 A 8.375576 40 45 0 0 11.714844 68.285156 A 8.375576 40 45 0 0 19.208984 67.095703 A 8.375576 40 30 0 0 20 74.640625 A 8.375576 40 30 0 0 26.929688 71.554688 A 8.375576 40 15 0 0 29.646484 78.636719 A 8.375576 40 15 0 0 35.541016 73.861328 A 8.375576 40 0 0 0 40 80 A 8.375576 40 0 0 0 44.458984 73.861328 A 40 8.375576 75 0 0 50.353516 78.638672 A 40 8.375576 75 0 0 53.070312 71.554688 A 40 8.375576 60 0 0 60 74.642578 A 40 8.375576 60 0 0 60.791016 67.095703 A 40 8.375576 45 0 0 68.285156 68.285156 A 40 8.375576 45 0 0 67.095703 60.791016 A 40 8.375576 30 0 0 74.640625 60 A 40 8.375576 30 0 0 71.554688 53.070312 A 40 8.375576 15 0 0 78.636719 50.353516 A 40 8.375576 15 0 0 73.861328 44.458984 A 40 8.375576 0 0 0 80 40 A 40 8.375576 0 0 0 73.861328 35.541016 A 8.375576 40 75 0 0 78.638672 29.646484 A 8.375576 40 75 0 0 71.554688 26.929688 A 8.375576 40 60 0 0 74.642578 20 A 8.375576 40 60 0 0 67.095703 19.208984 A 8.375576 40 45 0 0 68.285156 11.714844 A 8.375576 40 45 0 0 60.791016 12.904297 A 8.375576 40 30 0 0 60 5.359375 A 8.375576 40 30 0 0 53.070312 8.4453125 A 8.375576 40 15 0 0 50.353516 1.3632812 A 8.375576 40 15 0 0 44.458984 6.1386719 A 8.375576 40 0 0 0 40 0 z " />
  <circle
     cx="40"
     cy="40"
     r="33.617027"
     fill="none"
     stroke="#c4820e"
     stroke-width="1.5"
     id="circle2"
     style="stroke:#d49a2e;stroke-width:3.1516;stroke-dasharray:none;stroke-opacity:1" />
  <circle
     cx="40"
     cy="40"
     r="29.843967"
     fill="none"
     stroke="#c4820e"
     stroke-width="1.5"
     id="circle2-1"
     style="stroke:#d49a2e;stroke-width:1;stroke-dasharray:none;stroke-opacity:1" />
  <!-- Inner ring -->
  <!-- UG lettermark centered -->
  <g
     transform="matrix(1.6358463,0,0,1.6358463,16.427455,15.455762)"
     id="g2">
    <path
       d="M 8.162,23.21 C 5.8886667,23.21 4.1873333,22.66 3.058,21.56 1.9286667,20.46 1.364,18.736667 1.364,16.39 L 1.3641533,8.536 0,8.228 V 6.688 L 7.106,6.6878153 V 8.228 l -1.848,0.33 v 8.14 c 0,3.314667 1.1513333,4.972 3.454,4.972 1.144,0 1.98,-0.432667 2.508,-1.298 0.542667,-0.88 0.814,-2.09 0.814,-3.63 V 8.536 L 10.142,8.228 v -1.54 h 5.72 v 1.54 L 14.41,8.536 v 8.008 c 0,2.288 -0.564667,3.974667 -1.694,5.06 -1.114667,1.070667 -2.632667,1.606 -4.554,1.606 z m 14.036,0.066 c -1.642667,0 -3.050667,-0.359333 -4.224,-1.078 -1.173333,-0.718667 -2.060667,-1.701333 -2.662,-2.948 -0.601333,-1.246667 -0.902,-2.662 -0.902,-4.246 0,-1.818667 0.344667,-3.366 1.034,-4.642 0.689333,-1.276 1.672,-2.236667 2.948,-2.882 1.290667,-0.66 2.816,-0.99 4.576,-0.99 1.012,0 2.016667,0.07333 3.014,0.22 0.997333,0.146667 1.994896,0.300667 2.684229,0.462 L 28.248,11.418 h -2.64 L 24.992,8.514 C 24.86,8.367333 24.618,8.242667 24.266,8.14 23.928667,8.022667 23.466667,7.964 22.88,7.964 c -1.305333,0 -2.317333,0.579333 -3.036,1.738 -0.718667,1.144 -1.078,2.808667 -1.078,4.994 0,2.170667 0.300667,3.894 0.902,5.17 0.616,1.261333 1.569333,1.892 2.86,1.892 0.528,0 1.004667,-0.066 1.43,-0.198 0.44,-0.146667 0.77,-0.33 0.99,-0.55 v -4.598 l -2.046,-0.22 V 14.586 L 28.666229,14.585868 28.666,22.154 c -0.249333,0.01467 -0.828667,0.132 -1.738,0.352 -0.894667,0.234667 -1.701333,0.418 -2.42,0.55 -0.718667,0.146667 -1.488667,0.22 -2.31,0.22 z"
       fill="#ffffff"
       id="path2" />
  </g>
</svg>
